# xmcd CD database file
#
# Track frame offsets:
#	182
#	24337
#	61782
#	92520
#	109395
#	161355
#	179720
#	209005
#	251245
#	303455
#
# Disc length: 4686 seconds
#
# Revision: 0
# Processed by: cddbd v1.4b42PL1 Copyright (c) Steve Scherf et al.
# Submitted via: Feurio! 1.61 - http://www.feurio.com
#
DISCID=88124c0a
DTITLE=Robben Ford and The Blue Line - Above The Blue Fish
DYEAR=1900
DGENRE=
TTITLE0=The Brother
TTITLE1=Ain't Got Nothin' But The Blues
TTITLE2=You Cut Me To The Bone
TTITLE3=I live The Life I Love
TTITLE4=I've Been Down So Long
TTITLE5=Wild About You
TTITLE6=I'm A Real Man
TTITLE7=Talk To Your Daughter
TTITLE8=Help The Poor
TTITLE9=I Put A Spell On You
EXTD=
EXTT0=
EXTT1=
EXTT2=
EXTT3=
EXTT4=
EXTT5=
EXTT6=
EXTT7=
EXTT8=
EXTT9=
PLAYORDER=
